Genre:Crime | Drama | Romance
Language:English
IMDb:http://www.imdb.com/title/tt1458175/
Source:1080p.BluRay.x264.TWiZTED
Subtitles:Romana


Format : MPEG-4
Format profile : Base Media
Codec ID : isom
File size : 2.81 GiB
Duration : 2h 13mn
Overall bit rate : 3 017 Kbps


Video
Format profile : High@L4.1
Format settings, CABAC : Yes
Format settings, ReFrames : 3 frames
Codec ID : avc1
Codec ID/Info : Advanced Video Coding
Duration : 2h 13mn
Bit rate mode : Variable
Bit rate : 2 638 Kbps
Maximum bit rate : 10.9 Mbps
Width : 1 280 pixels
Height : 544 pixels
Display aspect ratio : 2.35:1
Frame rate mode : Constant
Frame rate : 23.976 fps
Color space : YUV
Chroma subsampling : 4:2:0
Bit depth : 8 bits
Scan type : Progressive
Bits/(Pixel*Frame) : 0.158
Stream size : 2.39 GiB (85%)
Writing library : x264


Audio
ID : 2
Format : AAC
Format/Info : Advanced Audio Codec
Format version : Version 4
Format profile : LC
Format settings, SBR : No
Codec ID : 40
Duration : 2h 13mn
Bit rate mode : Variable
Bit rate : 443 Kbps
Maximum bit rate : 545 Kbps
Channel(s) : 6 channels
Channel positions : Front: L C R, Side: L R, LFE
Sampling rate : 48.0 KHz
Stream size : 422 MiB (15%)


Plot:
A married couple's life is turned upside down when the wife is accused of a murder.